<svg xmlns="http://www.w3.org/2000/svg"  viewBox="0 0 64 64" width="512px" height="512px"><linearGradient id="9auIrUrEQs0xAhFXa5s3Ba" x1="17" x2="17" y1=".5" y2="48" gradientUnits="userSpaceOnUse"><stop offset="0" stop-color="#6dc7ff"/><stop offset="1" stop-color="#e6abff"/></linearGradient><path fill="url(#9auIrUrEQs0xAhFXa5s3Ba)" d="M24,26.236V24l-2,4h-2c0,0-1-0.5-1-2c0-4,4-7,4-7h-4l4-12V1L10,28l13,26V43	c-0.31-0.128-4-4-4-9h3l2,4v-2.236L21.618,31L24,26.236z"/><linearGradient id="9auIrUrEQs0xAhFXa5s3Bb" x1="47" x2="47" y1=".5" y2="48" gradientUnits="userSpaceOnUse"><stop offset="0" stop-color="#6dc7ff"/><stop offset="1" stop-color="#e6abff"/></linearGradient><path fill="url(#9auIrUrEQs0xAhFXa5s3Bb)" d="M41,1v6l4,12h-4c0,0,4,3,4,7c0,1.5-1,2-1,2h-2l-2-4v2.236L42.382,31L40,35.764V38l2-4h3	c0,6-4.69,8.872-5,9v6h1.142c0.769,0,1.47-0.441,1.803-1.135L54,28L41,1z"/><linearGradient id="9auIrUrEQs0xAhFXa5s3Bc" x1="32" x2="32" y1="-.001" y2="64" gradientUnits="userSpaceOnUse"><stop offset="0" stop-color="#1a6dff"/><stop offset="1" stop-color="#c822ff"/></linearGradient><path fill="url(#9auIrUrEQs0xAhFXa5s3Bc)" d="M31.5,64c-0.397,0-0.757-0.235-0.916-0.6l-3.5-8C27.028,55.274,27,55.138,27,55	c0-3.846,1.452-5.719,2.413-6.958C30,47.284,30,47.235,30,47c0-0.228,0-0.257-0.622-0.879C28.488,45.23,27,43.742,27,41	c0-2.512,1.246-3.95,2.071-4.902c0.381-0.44,0.633-0.731,0.776-1.098h-3.229l-1.724,3.447c-0.34,0.678-1.449,0.678-1.789,0	L21.382,35h-1.334c0.381,3.953,2.902,6.707,3.455,7.136C23.808,42.313,24,42.641,24,43v11c0,0.464-0.319,0.866-0.771,0.974	c-0.448,0.102-0.917-0.111-1.124-0.526l-13-26c-0.139-0.277-0.141-0.603-0.007-0.881l13-27c0.203-0.419,0.668-0.647,1.124-0.541	C23.678,0.129,24,0.533,24,1v6c0,0.107-0.018,0.214-0.052,0.316L20.388,18H23c0.43,0,0.811,0.275,0.947,0.683	s-0.003,0.857-0.346,1.116C23.565,19.826,20,22.56,20,26c0,0.545,0.191,0.85,0.333,1h1.049l1.724-3.447	c0.34-0.678,1.449-0.678,1.789,0L26.618,27h1.956c-0.067-0.141-0.139-0.282-0.21-0.427c-0.098-0.194-0.193-0.388-0.283-0.58	C27.574,24.904,27,23.672,27,22.25c0-3.539,2.862-5.088,4.572-6.013C31.67,16.185,31.827,16.1,32.004,16H30	c-0.612,0.002-2.429,0.154-3.445,0.832c-0.306,0.203-0.702,0.224-1.026,0.05C25.203,16.708,25,16.369,25,16	c0-3.62,2.326-5.244,3.256-5.748l1.85-3.699C30.277,6.21,30.619,6.007,31.013,6c0.383,0.005,0.73,0.229,0.893,0.575l1.605,3.426	c2.958,0.039,5.412,2.417,5.487,5.335c0.094,3.65-2.824,5.231-4.568,6.177c-0.29,0.157-1.102,0.597-1.396,0.845	c0.092,0.253,0.341,0.786,0.484,1.096l0.12,0.256c0.401,0.854,0.925,1.97,1.209,3.291h2.535l1.724-3.447	c0.34-0.678,1.449-0.678,1.789,0L42.618,27h1.054C43.805,26.855,44,26.55,44,26c0-3.44-3.565-6.174-3.602-6.201	c-0.343-0.259-0.482-0.709-0.346-1.116S40.57,18,41,18h2.612L40.052,7.316C40.018,7.214,40,7.107,40,7V1	c0-0.467,0.322-0.871,0.777-0.975c0.456-0.107,0.921,0.121,1.124,0.541l13,27c0.141,0.293,0.131,0.636-0.027,0.92L43.819,48.352	C43.351,49.332,42.288,50,41.142,50H40c-0.553,0-1-0.447-1-1v-6c0-0.404,0.244-0.77,0.618-0.924l0,0c-0.02,0,3.79-2.74,4.32-7.076	h-1.32l-1.724,3.447c-0.34,0.678-1.449,0.678-1.789,0L37.382,35h-1.43c-0.257,2.615-1.495,4.045-2.346,5.026	C33,40.726,33,40.768,33,41c0,0.228,0,0.257,0.622,0.879C34.512,42.77,36,44.258,36,47c0,2.338-1.066,3.713-1.845,4.717	C33.59,52.446,33.2,52.949,33.059,54H35c0.338,0,0.652,0.17,0.837,0.453c0.185,0.282,0.215,0.639,0.079,0.947l-3.5,8	C32.257,63.765,31.897,64,31.5,64z M29.002,54.794l2.498,5.711L33.471,56H32c-0.553,0-1-0.447-1-1c0-2.477,0.765-3.464,1.575-4.509	C33.275,49.587,34,48.653,34,47c0-1.914-0.993-2.907-1.792-3.706C31.506,42.591,31,42.084,31,41c0-1.021,0.436-1.522,1.095-2.284	C32.943,37.736,34,36.518,34,34c0-0.553,0.447-1,1-1h3c0.379,0,0.725,0.214,0.895,0.553L40,35.764l1.105-2.211	C41.275,33.214,41.621,33,42,33h3c0.553,0,1,0.447,1,1c0,4.859-3.503,8.341-5,9.507V48h0.142c0.383,0,0.736-0.223,0.902-0.567	l10.83-19.466L42,5.382v1.456l3.948,11.846c0.103,0.305,0.051,0.641-0.137,0.901C45.623,19.846,45.321,20,45,20h-1.528	C44.67,21.394,46,23.503,46,26c0,1.672-0.976,2.606-1.553,2.895C44.309,28.964,44.155,29,44,29h-2c-0.379,0-0.725-0.214-0.895-0.553	L40,26.236l-1.105,2.211C38.725,28.786,38.379,29,38,29h-4c-0.508,0-0.935-0.381-0.993-0.885c-0.161-1.389-0.726-2.591-1.18-3.557	l-0.12-0.257C31.267,23.356,31,22.749,31,22.25c0-1.154,1.093-1.746,2.476-2.495c1.962-1.063,3.58-2.125,3.522-4.368	C36.95,13.52,35.353,12,33.436,12h-0.561c-0.388,0-0.741-0.225-0.905-0.575l-0.999-2.131l-1.076,2.153	c-0.109,0.219-0.296,0.391-0.523,0.481c-0.071,0.03-1.529,0.663-2.123,2.451C28.561,14.015,29.806,14,30,14h3.466	c0.425,0,0.836,0.179,1.127,0.489c0.284,0.303,0.431,0.711,0.404,1.12c-0.071,1.035-0.986,1.581-2.473,2.387	C30.596,19.039,29,20.079,29,22.25c0,0.979,0.434,1.911,0.894,2.896c0.082,0.178,0.171,0.355,0.261,0.535	c0.312,0.626,0.665,1.335,0.825,2.118c0.061,0.294-0.015,0.6-0.205,0.832C30.585,28.865,30.301,29,30,29h-4	c-0.379,0-0.725-0.214-0.895-0.553L24,26.236l-1.105,2.211C22.725,28.786,22.379,29,22,29h-2c-0.155,0-0.309-0.036-0.447-0.105	C18.976,28.606,18,27.672,18,26c0-2.497,1.33-4.606,2.528-6H19c-0.321,0-0.623-0.154-0.812-0.415	c-0.188-0.261-0.239-0.597-0.137-0.901L22,6.838V5.382L11.114,27.991L22,49.764v-6.317c-1.315-1.244-4-4.749-4-9.446	c0-0.553,0.447-1,1-1h3c0.379,0,0.725,0.214,0.895,0.553L24,35.764l1.105-2.211C25.275,33.214,25.621,33,26,33h5	c0.553,0,1,0.447,1,1c0,1.771-0.656,2.527-1.415,3.404C29.841,38.264,29,39.234,29,41c0,1.914,0.993,2.907,1.792,3.706	C31.494,45.409,32,45.916,32,47c0,0.968-0.4,1.484-1.007,2.267C30.125,50.388,29.048,51.775,29.002,54.794z"/></svg>